#N canvas 0 50 450 300 12;
#X obj 22 32 inlet;
#X text 27 11 bpm;
#X obj 22 82 / 60000;
#X msg 22 132 1, f 1;
#X obj 22 157 /;
#X obj 22 107 t b f;
#X obj 22 57 posgate;
#X obj 22 183 outlet;
#X text 66 183 ms/beat;
#X connect 0 0 6 0;
#X connect 2 0 5 0;
#X connect 3 0 4 0;
#X connect 4 0 7 0;
#X connect 5 0 3 0;
#X connect 5 1 4 1;
#X connect 6 0 2 0;
