#N canvas 676 0 680 676 12;
#X text 25 24 bang to get next value;
#X obj 75 52 inlet;
#X obj 75 81 bng 15 250 50 0 empty empty empty 17 7 0 10 -262144 -1
-1;
#X msg 75 120 1, f 1;
#X floatatom 75 248 5 0 0 0 - - -, f 5;
#X obj 235 210 mod;
#X msg 131 120 -1;
#X text 113 249 range of [0 \, max);
#X text 163 112 reset counter, f 7;
#X obj 131 82 loadbang;
#X obj 75 176 +;
#X obj 250 52 inlet;
#X text 215 24 number of counts;
#X text 433 24 argument as number of counts;
#X obj 490 52 loadbang;
#X obj 490 78 f \$1;
#X obj 75 293 outlet;
#X text 121 293 count value output;
#X obj 355 52 inlet;
#X text 331 24 reset counter;
#X obj 355 80 bng 15 250 50 0 empty empty empty 17 7 0 10 -262144 -1
-1;
#X connect 1 0 2 0;
#X connect 2 0 3 0;
#X connect 3 0 10 0;
#X connect 4 0 16 0;
#X connect 5 0 4 0;
#X connect 5 0 10 1;
#X connect 6 0 10 1;
#X connect 9 0 6 0;
#X connect 10 0 5 0;
#X connect 11 0 5 1;
#X connect 14 0 15 0;
#X connect 15 0 5 1;
#X connect 18 0 20 0;
#X connect 20 0 6 0;
