#N canvas -11 -11 1920 956 12;
#X obj 12 85 tgl 15 0 empty empty empty 17 7 0 10 -262144 -1 -1 0 1
;
#X floatatom 12 258 5 0 0 0 - - -;
#X floatatom 25 106 5 1 1000 0 - - -;
#X floatatom 38 142 5 0 0 0 - - -;
#X obj 51 187 bng 15 250 50 0 empty empty empty 17 7 0 10 -262144 -1
-1;
#X obj 12 226 numloop;
#X text 62 226 count iterator;
#X obj 12 55 inlet;
#X obj 68 55 inlet;
#X obj 148 55 inlet;
#X text 9 32 on/off;
#X text 74 32 bpm;
#X text 120 32 number of beats;
#X floatatom 12 430 5 0 127 0 - - -;
#X floatatom 48 430 5 0 127 0 - - -;
#X floatatom 84 430 5 0 127 0 - - -;
#X floatatom 120 430 5 0 127 0 - - -;
#X obj 12 289 route 0 1 2 3 4 5 6 7 8 9 10 11 12 13 14 15, f 56;
#X obj 12 321 bng 15 250 50 0 empty empty empty 17 7 0 10 -262144 -1
-1;
#X obj 32 321 bng 15 250 50 0 empty empty empty 17 7 0 10 -262144 -1
-1;
#X obj 53 321 bng 15 250 50 0 empty empty empty 17 7 0 10 -262144 -1
-1;
#X obj 74 321 bng 15 250 50 0 empty empty empty 17 7 0 10 -262144 -1
-1;
#X obj 95 321 bng 15 250 50 0 empty empty empty 17 7 0 10 -262144 -1
-1;
#X obj 116 321 bng 15 250 50 0 empty empty empty 17 7 0 10 -262144
-1 -1;
#X obj 136 321 bng 15 250 50 0 empty empty empty 17 7 0 10 -262144
-1 -1;
#X obj 157 321 bng 15 250 50 0 empty empty empty 17 7 0 10 -262144
-1 -1;
#X obj 178 321 bng 15 250 50 0 empty empty empty 17 7 0 10 -262144
-1 -1;
#X obj 199 321 bng 15 250 50 0 empty empty empty 17 7 0 10 -262144
-1 -1;
#X obj 220 321 bng 15 250 50 0 empty empty empty 17 7 0 10 -262144
-1 -1;
#X obj 240 321 bng 15 250 50 0 empty empty empty 17 7 0 10 -262144
-1 -1;
#X obj 261 321 bng 15 250 50 0 empty empty empty 17 7 0 10 -262144
-1 -1;
#X obj 282 321 bng 15 250 50 0 empty empty empty 17 7 0 10 -262144
-1 -1;
#X obj 303 321 bng 15 250 50 0 empty empty empty 17 7 0 10 -262144
-1 -1;
#X obj 324 321 bng 15 250 50 0 empty empty empty 17 7 0 10 -262144
-1 -1;
#X obj 148 81 ctrlbound 1 16;
#X obj 29 411 tgl 15 0 empty empty empty 17 7 0 10 -262144 -1 -1 1
1;
#X obj 65 411 tgl 15 0 empty empty empty 17 7 0 10 -262144 -1 -1 1
1;
#X obj 101 411 tgl 15 0 empty empty empty 17 7 0 10 -262144 -1 -1 1
1;
#X obj 137 411 tgl 15 0 empty empty empty 17 7 0 10 -262144 -1 -1 1
1;
#X floatatom 156 430 5 0 127 0 - - -;
#X floatatom 192 430 5 0 127 0 - - -;
#X floatatom 228 430 5 0 127 0 - - -;
#X floatatom 264 430 5 0 127 0 - - -;
#X obj 173 411 tgl 15 0 empty empty empty 17 7 0 10 -262144 -1 -1 1
1;
#X obj 209 411 tgl 15 0 empty empty empty 17 7 0 10 -262144 -1 -1 1
1;
#X obj 245 411 tgl 15 0 empty empty empty 17 7 0 10 -262144 -1 -1 1
1;
#X obj 281 411 tgl 15 0 empty empty empty 17 7 0 10 -262144 -1 -1 1
1;
#X floatatom 300 430 5 0 127 0 - - -;
#X floatatom 336 430 5 0 127 0 - - -;
#X floatatom 372 430 5 0 127 0 - - -;
#X floatatom 408 430 5 0 127 0 - - -;
#X obj 317 411 tgl 15 0 empty empty empty 17 7 0 10 -262144 -1 -1 1
1;
#X obj 353 411 tgl 15 0 empty empty empty 17 7 0 10 -262144 -1 -1 1
1;
#X obj 389 411 tgl 15 0 empty empty empty 17 7 0 10 -262144 -1 -1 1
1;
#X obj 425 411 tgl 15 0 empty empty empty 17 7 0 10 -262144 -1 -1 1
1;
#X floatatom 444 430 5 0 127 0 - - -;
#X floatatom 480 430 5 0 127 0 - - -;
#X floatatom 516 430 5 0 127 0 - - -;
#X floatatom 552 430 5 0 127 0 - - -;
#X obj 461 411 tgl 15 0 empty empty empty 17 7 0 10 -262144 -1 -1 1
1;
#X obj 497 411 tgl 15 0 empty empty empty 17 7 0 10 -262144 -1 -1 1
1;
#X obj 533 411 tgl 15 0 empty empty empty 17 7 0 10 -262144 -1 -1 1
1;
#X obj 569 411 tgl 15 0 empty empty empty 17 7 0 10 -262144 -1 -1 1
1;
#X obj 12 354 spigot;
#X obj 48 384 spigot;
#X obj 84 354 spigot;
#X obj 120 384 spigot;
#X obj 156 354 spigot;
#X obj 192 384 spigot;
#X obj 228 354 spigot;
#X obj 264 384 spigot;
#X obj 300 354 spigot;
#X obj 336 384 spigot;
#X obj 372 354 spigot;
#X obj 408 384 spigot;
#X obj 444 354 spigot;
#X obj 480 384 spigot;
#X obj 516 354 spigot;
#X obj 552 384 spigot;
#X obj 12 510 outlet;
#X text 65 511 MIDI output;
#X floatatom 12 480 5 0 0 0 - - -;
#X obj 480 291 tgl 15 0 empty empty empty 17 7 0 10 -262144 -1 -1 1
1;
#X text 499 288 set all on/off;
#X floatatom 625 89 4 0 127 0 - - -;
#X obj 625 70 tgl 15 0 empty empty empty 17 7 0 10 -262144 -1 -1 1
1;
#X floatatom 658 89 4 0 127 0 - - -;
#X obj 658 70 tgl 15 0 empty empty empty 17 7 0 10 -262144 -1 -1 1
1;
#X floatatom 691 89 4 0 127 0 - - -;
#X obj 691 70 tgl 15 0 empty empty empty 17 7 0 10 -262144 -1 -1 1
1;
#X floatatom 724 89 4 0 127 0 - - -;
#X obj 724 70 tgl 15 0 empty empty empty 17 7 0 10 -262144 -1 -1 1
1;
#X obj 625 115 vsl 26 60 0 127 0 0 empty empty empty 0 -9 0 10 -262144
-1 -1 5900 1;
#X obj 658 115 vsl 26 60 0 127 0 0 empty empty empty 0 -9 0 10 -262144
-1 -1 0 1;
#X obj 691 115 vsl 26 60 0 127 0 0 empty empty empty 0 -9 0 10 -262144
-1 -1 0 1;
#X obj 724 115 vsl 26 60 0 127 0 0 empty empty empty 0 -9 0 10 -262144
-1 -1 0 1;
#X msg 625 278 set \$1;
#X msg 655 308 set \$1;
#X msg 685 278 set \$1;
#X msg 715 308 set \$1;
#X obj 625 228 round;
#X obj 655 253 round;
#X obj 685 228 round;
#X obj 715 253 round;
#X floatatom 757 89 4 0 127 0 - - -;
#X obj 757 70 tgl 15 0 empty empty empty 17 7 0 10 -262144 -1 -1 1
1;
#X floatatom 790 89 4 0 127 0 - - -;
#X obj 790 70 tgl 15 0 empty empty empty 17 7 0 10 -262144 -1 -1 1
1;
#X floatatom 823 89 4 0 127 0 - - -;
#X obj 823 70 tgl 15 0 empty empty empty 17 7 0 10 -262144 -1 -1 1
1;
#X floatatom 856 89 4 0 127 0 - - -;
#X obj 856 70 tgl 15 0 empty empty empty 17 7 0 10 -262144 -1 -1 1
1;
#X obj 757 115 vsl 26 60 0 127 0 0 empty empty empty 0 -9 0 10 -262144
-1 -1 0 1;
#X obj 790 115 vsl 26 60 0 127 0 0 empty empty empty 0 -9 0 10 -262144
-1 -1 0 1;
#X obj 823 115 vsl 26 60 0 127 0 0 empty empty empty 0 -9 0 10 -262144
-1 -1 0 1;
#X obj 856 115 vsl 26 60 0 127 0 0 empty empty empty 0 -9 0 10 -262144
-1 -1 0 1;
#X msg 745 278 set \$1;
#X msg 775 308 set \$1;
#X msg 805 278 set \$1;
#X msg 835 308 set \$1;
#X obj 745 228 round;
#X obj 775 253 round;
#X obj 805 228 round;
#X obj 835 253 round;
#X floatatom 889 89 4 0 127 0 - - -;
#X obj 889 70 tgl 15 0 empty empty empty 17 7 0 10 -262144 -1 -1 1
1;
#X floatatom 922 89 4 0 127 0 - - -;
#X obj 922 70 tgl 15 0 empty empty empty 17 7 0 10 -262144 -1 -1 1
1;
#X floatatom 955 89 4 0 127 0 - - -;
#X obj 955 70 tgl 15 0 empty empty empty 17 7 0 10 -262144 -1 -1 1
1;
#X floatatom 988 89 4 0 127 0 - - -;
#X obj 988 70 tgl 15 0 empty empty empty 17 7 0 10 -262144 -1 -1 1
1;
#X obj 889 115 vsl 26 60 0 127 0 0 empty empty empty 0 -9 0 10 -262144
-1 -1 0 1;
#X obj 922 115 vsl 26 60 0 127 0 0 empty empty empty 0 -9 0 10 -262144
-1 -1 0 1;
#X obj 955 115 vsl 26 60 0 127 0 0 empty empty empty 0 -9 0 10 -262144
-1 -1 0 1;
#X obj 988 115 vsl 26 60 0 127 0 0 empty empty empty 0 -9 0 10 -262144
-1 -1 0 1;
#X msg 865 278 set \$1;
#X msg 895 308 set \$1;
#X msg 925 278 set \$1;
#X msg 955 308 set \$1;
#X obj 865 228 round;
#X obj 895 253 round;
#X obj 925 228 round;
#X obj 955 253 round;
#X floatatom 1021 89 4 0 127 0 - - -;
#X obj 1021 70 tgl 15 0 empty empty empty 17 7 0 10 -262144 -1 -1 1
1;
#X floatatom 1054 89 4 0 127 0 - - -;
#X obj 1054 70 tgl 15 0 empty empty empty 17 7 0 10 -262144 -1 -1 1
1;
#X floatatom 1087 89 4 0 127 0 - - -;
#X obj 1087 70 tgl 15 0 empty empty empty 17 7 0 10 -262144 -1 -1 1
1;
#X floatatom 1120 89 4 0 127 0 - - -;
#X obj 1120 70 tgl 15 0 empty empty empty 17 7 0 10 -262144 -1 -1 1
1;
#X obj 1021 115 vsl 26 60 0 127 0 0 empty empty empty 0 -9 0 10 -262144
-1 -1 0 1;
#X obj 1054 115 vsl 26 60 0 127 0 0 empty empty empty 0 -9 0 10 -262144
-1 -1 0 1;
#X obj 1087 115 vsl 26 60 0 127 0 0 empty empty empty 0 -9 0 10 -262144
-1 -1 0 1;
#X obj 1120 115 vsl 26 60 0 127 0 0 empty empty empty 0 -9 0 10 -262144
-1 -1 0 1;
#X msg 985 278 set \$1;
#X msg 1015 308 set \$1;
#X msg 1045 278 set \$1;
#X msg 1075 308 set \$1;
#X obj 985 228 round;
#X obj 1015 253 round;
#X obj 1045 228 round;
#X obj 1075 253 round;
#X obj 1199 62 tgl 15 0 empty empty empty 17 7 0 10 -262144 -1 -1 1
1;
#X msg 1247 140 set \$1;
#X floatatom 1177 124 5 1 1000 0 - - -;
#X text 1189 107 BPM;
#X obj 1188 26 tgl 26 0 empty empty empty 17 7 0 10 -262144 -1 -1 0
1;
#X text 1069 25 Sequencer on/off;
#X floatatom 1191 160 3 1 16 0 - - -;
#X text 1161 143 # beats;
#X obj 1247 33 loadbang;
#X msg 1247 59 16, f 2;
#X text 623 52 1;
#X text 656 52 2;
#X text 689 52 3;
#X text 722 52 4;
#X text 755 52 5;
#X text 788 52 6;
#X text 821 52 7;
#X text 854 52 8;
#X text 887 52 9;
#X text 920 52 10;
#X text 953 52 11;
#X text 986 52 12;
#X text 1019 52 13;
#X text 1052 52 14;
#X text 1085 52 15;
#X text 1118 52 16;
#X msg 1275 59 140;
#X msg 1247 86 1, f 1;
#X obj 1199 84 bng 15 250 50 0 empty empty empty 17 7 0 10 -262144
-1 -1;
#X text 1161 81 Reset;
#X obj 633 45 bng 10 250 50 0 empty empty empty 17 7 0 10 -262144 -1
-1;
#X obj 666 45 bng 10 250 50 0 empty empty empty 17 7 0 10 -262144 -1
-1;
#X obj 699 45 bng 10 250 50 0 empty empty empty 17 7 0 10 -262144 -1
-1;
#X obj 732 45 bng 10 250 50 0 empty empty empty 17 7 0 10 -262144 -1
-1;
#X obj 765 45 bng 10 250 50 0 empty empty empty 17 7 0 10 -262144 -1
-1;
#X obj 798 45 bng 10 250 50 0 empty empty empty 17 7 0 10 -262144 -1
-1;
#X obj 831 45 bng 10 250 50 0 empty empty empty 17 7 0 10 -262144 -1
-1;
#X obj 864 45 bng 10 250 50 0 empty empty empty 17 7 0 10 -262144 -1
-1;
#X obj 897 45 bng 10 250 50 0 empty empty empty 17 7 0 10 -262144 -1
-1;
#X obj 930 45 bng 10 250 50 0 empty empty empty 17 7 0 10 -262144 -1
-1;
#X obj 963 45 bng 10 250 50 0 empty empty empty 17 7 0 10 -262144 -1
-1;
#X obj 996 45 bng 10 250 50 0 empty empty empty 17 7 0 10 -262144 -1
-1;
#X obj 1029 45 bng 10 250 50 0 empty empty empty 17 7 0 10 -262144
-1 -1;
#X obj 1062 45 bng 10 250 50 0 empty empty empty 17 7 0 10 -262144
-1 -1;
#X obj 1095 45 bng 10 250 50 0 empty empty empty 17 7 0 10 -262144
-1 -1;
#X obj 1128 45 bng 10 250 50 0 empty empty empty 17 7 0 10 -262144
-1 -1;
#X msg 159 131 set \$1;
#X msg 219 131 set \$1;
#X msg 279 131 set \$1;
#X text 624 24 MIDI Trigger;
#X text 623 180 Envelope Trigger;
#X obj 631 199 tgl 15 0 empty empty empty 17 7 0 10 -262144 -1 -1 1
1;
#X obj 664 199 tgl 15 0 empty empty empty 17 7 0 10 -262144 -1 -1 1
1;
#X obj 697 199 tgl 15 0 empty empty empty 17 7 0 10 -262144 -1 -1 1
1;
#X obj 730 199 tgl 15 0 empty empty empty 17 7 0 10 -262144 -1 -1 1
1;
#X obj 763 199 tgl 15 0 empty empty empty 17 7 0 10 -262144 -1 -1 1
1;
#X obj 796 199 tgl 15 0 empty empty empty 17 7 0 10 -262144 -1 -1 1
1;
#X obj 829 199 tgl 15 0 empty empty empty 17 7 0 10 -262144 -1 -1 1
1;
#X obj 862 199 tgl 15 0 empty empty empty 17 7 0 10 -262144 -1 -1 1
1;
#X obj 895 199 tgl 15 0 empty empty empty 17 7 0 10 -262144 -1 -1 1
1;
#X obj 928 199 tgl 15 0 empty empty empty 17 7 0 10 -262144 -1 -1 1
1;
#X obj 961 199 tgl 15 0 empty empty empty 17 7 0 10 -262144 -1 -1 1
1;
#X obj 994 199 tgl 15 0 empty empty empty 17 7 0 10 -262144 -1 -1 1
1;
#X obj 1027 199 tgl 15 0 empty empty empty 17 7 0 10 -262144 -1 -1
1 1;
#X obj 1060 199 tgl 15 0 empty empty empty 17 7 0 10 -262144 -1 -1
1 1;
#X obj 1093 199 tgl 15 0 empty empty empty 17 7 0 10 -262144 -1 -1
1 1;
#X obj 1126 199 tgl 15 0 empty empty empty 17 7 0 10 -262144 -1 -1
1 1;
#X obj 192 510 outlet;
#X text 245 511 Envelope trigger output;
#X obj 705 572 tgl 15 0 empty empty empty 17 7 0 10 -262144 -1 -1 1
1;
#X obj 741 572 tgl 15 0 empty empty empty 17 7 0 10 -262144 -1 -1 1
1;
#X obj 777 572 tgl 15 0 empty empty empty 17 7 0 10 -262144 -1 -1 1
1;
#X obj 813 572 tgl 15 0 empty empty empty 17 7 0 10 -262144 -1 -1 1
1;
#X obj 849 572 tgl 15 0 empty empty empty 17 7 0 10 -262144 -1 -1 1
1;
#X obj 885 572 tgl 15 0 empty empty empty 17 7 0 10 -262144 -1 -1 1
1;
#X obj 921 572 tgl 15 0 empty empty empty 17 7 0 10 -262144 -1 -1 1
1;
#X obj 957 572 tgl 15 0 empty empty empty 17 7 0 10 -262144 -1 -1 1
1;
#X obj 993 572 tgl 15 0 empty empty empty 17 7 0 10 -262144 -1 -1 1
1;
#X obj 1029 572 tgl 15 0 empty empty empty 17 7 0 10 -262144 -1 -1
1 1;
#X obj 1065 572 tgl 15 0 empty empty empty 17 7 0 10 -262144 -1 -1
1 1;
#X obj 1101 572 tgl 15 0 empty empty empty 17 7 0 10 -262144 -1 -1
1 1;
#X obj 1137 572 tgl 15 0 empty empty empty 17 7 0 10 -262144 -1 -1
1 1;
#X obj 1173 572 tgl 15 0 empty empty empty 17 7 0 10 -262144 -1 -1
1 1;
#X obj 1209 572 tgl 15 0 empty empty empty 17 7 0 10 -262144 -1 -1
1 1;
#X obj 1245 572 tgl 15 0 empty empty empty 17 7 0 10 -262144 -1 -1
1 1;
#X obj 688 515 spigot;
#X obj 724 545 spigot;
#X obj 760 515 spigot;
#X obj 796 545 spigot;
#X obj 832 515 spigot;
#X obj 868 545 spigot;
#X obj 904 515 spigot;
#X obj 940 545 spigot;
#X obj 976 515 spigot;
#X obj 1012 545 spigot;
#X obj 1048 515 spigot;
#X obj 1084 545 spigot;
#X obj 1120 515 spigot;
#X obj 1156 545 spigot;
#X obj 1192 515 spigot;
#X obj 1228 545 spigot;
#X obj 688 602 bng 15 250 50 0 empty empty empty 17 7 0 10 -262144
-1 -1;
#X obj 1290 572 tgl 15 0 empty empty empty 17 7 0 10 -262144 -1 -1
1 1;
#X obj 1199 200 tgl 15 0 empty empty empty 17 7 0 10 -262144 -1 -1
1 1;
#X msg 1290 545 set \$1;
#X text 1173 196 All;
#X text 1173 58 All;
#X connect 0 0 5 0;
#X connect 0 0 210 0;
#X connect 1 0 17 0;
#X connect 2 0 5 1;
#X connect 2 0 211 0;
#X connect 3 0 5 2;
#X connect 4 0 5 3;
#X connect 5 0 1 0;
#X connect 7 0 0 0;
#X connect 8 0 2 0;
#X connect 9 0 34 0;
#X connect 13 0 81 0;
#X connect 14 0 81 0;
#X connect 15 0 81 0;
#X connect 16 0 81 0;
#X connect 17 0 18 0;
#X connect 17 1 19 0;
#X connect 17 2 20 0;
#X connect 17 3 21 0;
#X connect 17 4 22 0;
#X connect 17 5 23 0;
#X connect 17 6 24 0;
#X connect 17 7 25 0;
#X connect 17 8 26 0;
#X connect 17 9 27 0;
#X connect 17 10 28 0;
#X connect 17 11 29 0;
#X connect 17 12 30 0;
#X connect 17 13 31 0;
#X connect 17 14 32 0;
#X connect 17 15 33 0;
#X connect 18 0 63 0;
#X connect 18 0 249 0;
#X connect 19 0 64 0;
#X connect 19 0 250 0;
#X connect 20 0 65 0;
#X connect 20 0 251 0;
#X connect 21 0 66 0;
#X connect 21 0 252 0;
#X connect 22 0 67 0;
#X connect 22 0 253 0;
#X connect 23 0 68 0;
#X connect 23 0 254 0;
#X connect 24 0 69 0;
#X connect 24 0 255 0;
#X connect 25 0 70 0;
#X connect 25 0 256 0;
#X connect 26 0 71 0;
#X connect 26 0 257 0;
#X connect 27 0 72 0;
#X connect 27 0 258 0;
#X connect 28 0 73 0;
#X connect 28 0 259 0;
#X connect 29 0 74 0;
#X connect 29 0 260 0;
#X connect 30 0 75 0;
#X connect 30 0 261 0;
#X connect 31 0 76 0;
#X connect 31 0 262 0;
#X connect 32 0 77 0;
#X connect 32 0 263 0;
#X connect 33 0 78 0;
#X connect 33 0 264 0;
#X connect 34 0 3 0;
#X connect 34 0 212 0;
#X connect 35 0 63 1;
#X connect 36 0 64 1;
#X connect 37 0 65 1;
#X connect 38 0 66 1;
#X connect 39 0 81 0;
#X connect 40 0 81 0;
#X connect 41 0 81 0;
#X connect 42 0 81 0;
#X connect 43 0 67 1;
#X connect 44 0 68 1;
#X connect 45 0 69 1;
#X connect 46 0 70 1;
#X connect 47 0 81 0;
#X connect 48 0 81 0;
#X connect 49 0 81 0;
#X connect 50 0 81 0;
#X connect 51 0 71 1;
#X connect 52 0 72 1;
#X connect 53 0 73 1;
#X connect 54 0 74 1;
#X connect 55 0 81 0;
#X connect 56 0 81 0;
#X connect 57 0 81 0;
#X connect 58 0 81 0;
#X connect 59 0 75 1;
#X connect 60 0 76 1;
#X connect 61 0 77 1;
#X connect 62 0 78 1;
#X connect 63 0 13 0;
#X connect 63 0 194 0;
#X connect 64 0 14 0;
#X connect 64 0 195 0;
#X connect 65 0 15 0;
#X connect 65 0 196 0;
#X connect 66 0 16 0;
#X connect 66 0 197 0;
#X connect 67 0 39 0;
#X connect 67 0 198 0;
#X connect 68 0 40 0;
#X connect 68 0 199 0;
#X connect 69 0 41 0;
#X connect 69 0 200 0;
#X connect 70 0 42 0;
#X connect 70 0 201 0;
#X connect 71 0 47 0;
#X connect 71 0 202 0;
#X connect 72 0 48 0;
#X connect 72 0 203 0;
#X connect 73 0 49 0;
#X connect 73 0 204 0;
#X connect 74 0 50 0;
#X connect 74 0 205 0;
#X connect 75 0 55 0;
#X connect 75 0 206 0;
#X connect 76 0 56 0;
#X connect 76 0 207 0;
#X connect 77 0 57 0;
#X connect 77 0 208 0;
#X connect 78 0 58 0;
#X connect 78 0 209 0;
#X connect 81 0 79 0;
#X connect 82 0 35 0;
#X connect 82 0 36 0;
#X connect 82 0 37 0;
#X connect 82 0 38 0;
#X connect 82 0 43 0;
#X connect 82 0 44 0;
#X connect 82 0 45 0;
#X connect 82 0 46 0;
#X connect 82 0 51 0;
#X connect 82 0 52 0;
#X connect 82 0 53 0;
#X connect 82 0 54 0;
#X connect 82 0 59 0;
#X connect 82 0 60 0;
#X connect 82 0 61 0;
#X connect 82 0 62 0;
#X connect 84 0 92 0;
#X connect 85 0 35 0;
#X connect 86 0 93 0;
#X connect 87 0 36 0;
#X connect 88 0 94 0;
#X connect 89 0 37 0;
#X connect 90 0 95 0;
#X connect 91 0 38 0;
#X connect 92 0 100 0;
#X connect 93 0 101 0;
#X connect 94 0 102 0;
#X connect 95 0 103 0;
#X connect 96 0 84 0;
#X connect 96 0 13 0;
#X connect 97 0 86 0;
#X connect 97 0 14 0;
#X connect 98 0 88 0;
#X connect 98 0 15 0;
#X connect 99 0 90 0;
#X connect 99 0 16 0;
#X connect 100 0 96 0;
#X connect 101 0 97 0;
#X connect 102 0 98 0;
#X connect 103 0 99 0;
#X connect 104 0 112 0;
#X connect 105 0 43 0;
#X connect 106 0 113 0;
#X connect 107 0 44 0;
#X connect 108 0 114 0;
#X connect 109 0 45 0;
#X connect 110 0 115 0;
#X connect 111 0 46 0;
#X connect 112 0 120 0;
#X connect 113 0 121 0;
#X connect 114 0 122 0;
#X connect 115 0 123 0;
#X connect 116 0 104 0;
#X connect 116 0 39 0;
#X connect 117 0 106 0;
#X connect 117 0 40 0;
#X connect 118 0 108 0;
#X connect 118 0 41 0;
#X connect 119 0 42 0;
#X connect 119 0 110 0;
#X connect 120 0 116 0;
#X connect 121 0 117 0;
#X connect 122 0 118 0;
#X connect 123 0 119 0;
#X connect 124 0 132 0;
#X connect 125 0 51 0;
#X connect 126 0 133 0;
#X connect 127 0 52 0;
#X connect 128 0 134 0;
#X connect 129 0 53 0;
#X connect 130 0 135 0;
#X connect 131 0 54 0;
#X connect 132 0 140 0;
#X connect 133 0 141 0;
#X connect 134 0 142 0;
#X connect 135 0 143 0;
#X connect 136 0 124 0;
#X connect 136 0 47 0;
#X connect 137 0 126 0;
#X connect 137 0 48 0;
#X connect 138 0 128 0;
#X connect 138 0 49 0;
#X connect 139 0 130 0;
#X connect 139 0 50 0;
#X connect 140 0 136 0;
#X connect 141 0 137 0;
#X connect 142 0 138 0;
#X connect 143 0 139 0;
#X connect 144 0 152 0;
#X connect 145 0 59 0;
#X connect 146 0 153 0;
#X connect 147 0 60 0;
#X connect 148 0 154 0;
#X connect 149 0 61 0;
#X connect 150 0 155 0;
#X connect 151 0 62 0;
#X connect 152 0 160 0;
#X connect 153 0 161 0;
#X connect 154 0 162 0;
#X connect 155 0 163 0;
#X connect 156 0 144 0;
#X connect 156 0 55 0;
#X connect 157 0 146 0;
#X connect 157 0 56 0;
#X connect 158 0 148 0;
#X connect 158 0 57 0;
#X connect 159 0 150 0;
#X connect 159 0 58 0;
#X connect 160 0 156 0;
#X connect 161 0 157 0;
#X connect 162 0 158 0;
#X connect 163 0 159 0;
#X connect 164 0 165 0;
#X connect 164 0 85 0;
#X connect 164 0 87 0;
#X connect 164 0 89 0;
#X connect 164 0 91 0;
#X connect 164 0 105 0;
#X connect 164 0 107 0;
#X connect 164 0 109 0;
#X connect 164 0 111 0;
#X connect 164 0 125 0;
#X connect 164 0 127 0;
#X connect 164 0 129 0;
#X connect 164 0 131 0;
#X connect 164 0 145 0;
#X connect 164 0 147 0;
#X connect 164 0 149 0;
#X connect 164 0 151 0;
#X connect 165 0 82 0;
#X connect 166 0 2 0;
#X connect 168 0 0 0;
#X connect 170 0 34 0;
#X connect 172 0 173 0;
#X connect 172 0 190 0;
#X connect 172 0 191 0;
#X connect 173 0 170 0;
#X connect 190 0 166 0;
#X connect 191 0 164 0;
#X connect 191 0 267 0;
#X connect 192 0 4 0;
#X connect 210 0 168 0;
#X connect 211 0 166 0;
#X connect 212 0 170 0;
#X connect 215 0 233 0;
#X connect 216 0 234 0;
#X connect 217 0 235 0;
#X connect 218 0 236 0;
#X connect 219 0 237 0;
#X connect 220 0 238 0;
#X connect 221 0 239 0;
#X connect 222 0 240 0;
#X connect 223 0 241 0;
#X connect 224 0 242 0;
#X connect 225 0 243 0;
#X connect 226 0 244 0;
#X connect 227 0 245 0;
#X connect 228 0 246 0;
#X connect 229 0 247 0;
#X connect 230 0 248 0;
#X connect 233 0 249 1;
#X connect 234 0 250 1;
#X connect 235 0 251 1;
#X connect 236 0 252 1;
#X connect 237 0 253 1;
#X connect 238 0 254 1;
#X connect 239 0 255 1;
#X connect 240 0 256 1;
#X connect 241 0 257 1;
#X connect 242 0 258 1;
#X connect 243 0 259 1;
#X connect 244 0 260 1;
#X connect 245 0 261 1;
#X connect 246 0 262 1;
#X connect 247 0 263 1;
#X connect 248 0 264 1;
#X connect 249 0 265 0;
#X connect 250 0 265 0;
#X connect 251 0 265 0;
#X connect 252 0 265 0;
#X connect 253 0 265 0;
#X connect 254 0 265 0;
#X connect 255 0 265 0;
#X connect 256 0 265 0;
#X connect 257 0 265 0;
#X connect 258 0 265 0;
#X connect 259 0 265 0;
#X connect 260 0 265 0;
#X connect 261 0 265 0;
#X connect 262 0 265 0;
#X connect 263 0 265 0;
#X connect 264 0 265 0;
#X connect 265 0 231 0;
#X connect 266 0 233 0;
#X connect 266 0 234 0;
#X connect 266 0 235 0;
#X connect 266 0 236 0;
#X connect 266 0 237 0;
#X connect 266 0 238 0;
#X connect 266 0 239 0;
#X connect 266 0 240 0;
#X connect 266 0 241 0;
#X connect 266 0 242 0;
#X connect 266 0 243 0;
#X connect 266 0 244 0;
#X connect 266 0 245 0;
#X connect 266 0 246 0;
#X connect 266 0 247 0;
#X connect 266 0 248 0;
#X connect 267 0 215 0;
#X connect 267 0 216 0;
#X connect 267 0 217 0;
#X connect 267 0 218 0;
#X connect 267 0 219 0;
#X connect 267 0 220 0;
#X connect 267 0 221 0;
#X connect 267 0 222 0;
#X connect 267 0 223 0;
#X connect 267 0 224 0;
#X connect 267 0 225 0;
#X connect 267 0 226 0;
#X connect 267 0 227 0;
#X connect 267 0 228 0;
#X connect 267 0 229 0;
#X connect 267 0 230 0;
#X connect 267 0 268 0;
#X connect 268 0 266 0;
#X coords 0 -1 1 1 600 200 2 620 20;
