#N canvas -7 0 681 676 12;
#X obj 44 147 bpm;
#X obj 128 78 inlet;
#X text 117 51 bpm value;
#X obj 44 78 inlet;
#X text 20 51 toggle on/off;
#X obj 338 78 f \$1;
#X obj 338 45 loadbang;
#X obj 488 45 loadbang;
#X text 306 20 1st argument as bpm;
#X text 443 20 2nd argument as max num;
#X obj 488 78 f \$2;
#X obj 204 78 inlet;
#X text 199 51 max num;
#X obj 488 111 sel 0;
#X msg 488 147 4, f 2;
#X text 516 140 default max of 4 if no argument provided, f 16;
#X obj 44 219 counter;
#X obj 44 261 outlet;
#X obj 272 78 inlet;
#X text 273 51 reset;
#X obj 272 120 bng 15 250 50 0 empty empty empty 17 7 0 10 -262144
-1 -1;
#X text 91 261 count output [0 \, max);
#X connect 0 0 16 0;
#X connect 1 0 0 1;
#X connect 3 0 0 0;
#X connect 5 0 0 1;
#X connect 6 0 5 0;
#X connect 7 0 10 0;
#X connect 10 0 13 0;
#X connect 11 0 16 1;
#X connect 13 0 14 0;
#X connect 13 1 16 1;
#X connect 14 0 16 1;
#X connect 16 0 17 0;
#X connect 18 0 20 0;
#X connect 20 0 16 2;
